<?xml version="1.0"?>
<svg width="860" height="730" xmlns="http://www.w3.org/2000/svg" xmlns:svg="http://www.w3.org/2000/svg" version="1.1" xml:space="preserve">
 <metadata id="metadata8">image/svg+xml</metadata>
 <defs id="defs6">
  <clipPath clipPathUnits="userSpaceOnUse" id="clipPath18">
   <path d="m-98.25,1493.55l841.89,0l0,-1190.55l-841.89,0l0,1190.55z" id="path16"/>
  </clipPath>
 </defs>
 <g class="layer">
  <title>Layer 1</title>
  <g id="g12" transform="matrix(1.33333 0 0 -1.33333 0 1587.4)">
   <g clip-path="url(#clipPath18)" id="g14">
    <g id="g20" transform="translate(149.808 354.89)">
     <path d="m-98.25,303c-23.08,0 -34.62,10.2 -34.62,30.59l6.12,0c0,-16.64 9.55,-24.95 28.66,-24.95c6.66,0 12.13,1.12 16.42,3.38c5.69,2.89 8.54,7.29 8.54,13.2c0,7.4 -5.69,12.4 -17.07,14.97c-0.75,0.21 -6.17,1.13 -16.26,2.74c-15.35,2.36 -23.02,9.17 -23.02,20.45c0,7.18 3,12.82 9.01,16.9c5.26,3.65 11.76,5.47 19.48,5.47c22.22,0 33.38,-9.01 33.49,-27.04l-6.28,0c0,14.27 -8.8,21.41 -26.4,21.41c-6.01,0 -11.22,-1.29 -15.62,-3.87c-5.04,-3.11 -7.57,-7.4 -7.57,-12.88c0,-7.3 5.53,-12.02 16.59,-14.16c2.9,-0.54 8.58,-1.56 17.06,-3.06c15.14,-2.69 22.7,-9.66 22.7,-20.93c0,-7.95 -3.43,-13.85 -10.3,-17.71c-5.37,-3.01 -12.34,-4.51 -20.93,-4.51" fill="#000000" fill-rule="nonzero" id="path22"/>
    </g>
    <g id="g24" transform="translate(230.468 432.169)">
     <path d="m-98.25,303c-10.3,0 -18.41,-3.6 -24.31,-10.79c-5.48,-6.65 -8.21,-15.08 -8.21,-25.27c0,-10.31 2.68,-18.68 8.05,-25.12c5.9,-6.98 14.06,-10.47 24.47,-10.47c10.3,0 18.62,3.49 24.96,10.47c6.11,6.65 9.17,15.03 9.17,25.12c0,11.05 -2.95,19.82 -8.85,26.32c-5.91,6.49 -14.33,9.74 -25.28,9.74m34.13,-75.19l0,17.71c-6.87,-12.99 -18.19,-19.48 -33.97,-19.48c-12.13,0 -21.63,3.97 -28.5,11.92c-6.54,7.4 -9.82,17.06 -9.82,28.98c0,12.12 3.28,21.95 9.82,29.46c7.09,7.94 16.8,11.91 29.14,11.91c15.78,0 26.89,-6.33 33.33,-18.99l0,18.67l5.8,0l0,-80.18l-5.8,0z" fill="#000000" fill-rule="nonzero" id="path26"/>
    </g>
    <g id="g28" transform="translate(301.468 434.424)">
     <path d="m-98.25,303l0,-6.6l17.87,0l0,-5.47l-17.87,0l0,-65.53l-5.8,0l0,65.52l-11.59,0l0,5.48l11.59,0l0,6.6c0,19.86 12.83,29.78 38.48,29.78l0,-5.15c-21.79,0 -32.68,-8.21 -32.68,-24.63" fill="#000000" fill-rule="nonzero" id="path30"/>
    </g>
    <g id="g32" transform="translate(366.834 432.169)">
     <path d="m-98.25,303c-9.88,0 -17.82,-2.92 -23.83,-8.77c-6.01,-5.86 -9.39,-13.72 -10.14,-23.59l66.81,0c-0.21,9.87 -3.27,17.73 -9.17,23.59c-5.91,5.85 -13.8,8.77 -23.67,8.77m-33.97,-37.67c0.64,-22.65 11.81,-33.97 33.49,-33.97c7.3,0 13.76,1.66 19.4,4.99c5.63,3.32 9.68,8.21 12.15,14.65l5.96,0c-2.79,-8.91 -7.73,-15.4 -14.81,-19.48c-6.44,-3.65 -14.12,-5.48 -23.02,-5.48c-12.88,0 -22.71,3.76 -29.47,11.27c-6.22,7.09 -9.34,16.96 -9.34,29.63c0,12.23 3.57,22.19 10.71,29.86c7.14,7.67 16.77,11.51 28.9,11.51c12.02,0 21.63,-3.43 28.82,-10.3c7.19,-6.87 10.79,-16.21 10.79,-28.02l0,-4.5l-73.58,-0.16z" fill="#000000" fill-rule="nonzero" id="path34"/>
    </g>
    <g id="g36" transform="translate(471.978 356.903)">
     <path d="m-98.25,303l0,52.48c0,11.41 -6.74,17.11 -20.23,17.11c-7.66,0 -13.61,-2.2 -17.85,-6.61c-4.24,-4.42 -6.36,-10.23 -6.36,-17.45l0,-45.53l-14.71,0l0,109.48l14.71,0l0,-32.94c6.44,4.73 14.46,7.1 24.06,7.1c9.81,0 17.88,-2.37 24.21,-7.1c7.25,-5.28 10.88,-12.81 10.88,-22.61l0,-53.93l-14.71,0z" fill="#000000" fill-rule="nonzero" id="path38"/>
    </g>
    <g id="g40" transform="translate(557.177 416.972)">
     <path d="m-98.25,303c-4.7,4.63 -11.24,6.94 -19.61,6.94c-8.38,0 -14.97,-2.31 -19.77,-6.94c-3.68,-3.55 -6.08,-7.91 -7.2,-13.08l53.32,0c-0.92,5.17 -3.17,9.53 -6.74,13.08m-47.04,-26.8c1.73,-14.22 10.72,-21.32 26.97,-21.32c13.28,0 22.22,5.87 26.81,17.6l15.17,0c-4.29,-13.03 -10.37,-21.64 -18.23,-25.83c-6.85,-3.67 -14.87,-5.49 -24.06,-5.49c-13.59,0 -24.01,3.82 -31.26,11.46c-6.95,7.21 -10.42,17.06 -10.42,29.55c0,11.95 3.83,21.85 11.49,29.71c7.66,7.86 17.98,11.79 30.96,11.79c12.66,0 22.88,-3.5 30.64,-10.5c7.76,-7 11.65,-16.36 11.65,-28.09l0,-8.72l-69.72,-0.16z" fill="#000000" fill-rule="nonzero" id="path42"/>
    </g>
    <g id="g44" transform="translate(644.749 416.487)">
     <path d="m-98.25,303c-4.75,4.95 -11.67,7.43 -20.76,7.43c-8.38,0 -14.97,-2.7 -19.77,-8.08c-4.39,-5.06 -6.59,-11.62 -6.59,-19.7c0,-8.07 2.2,-14.53 6.59,-19.37c4.7,-5.28 11.29,-7.91 19.77,-7.91c8.47,0 15.24,2.58 20.3,7.75c5.06,5.16 7.59,11.68 7.59,19.53c0,8.62 -2.38,15.4 -7.13,20.35m7.13,-59.74l0,7.42c-7.16,-6.03 -16.4,-9.04 -27.74,-9.04c-12.87,0 -23.09,4.04 -30.65,12.11c-7.05,7.53 -10.57,17.17 -10.57,28.9c0,12.06 3.57,21.86 10.73,29.39c7.66,8.08 18.02,12.11 31.1,12.11c10.83,0 19.87,-2.9 27.13,-8.72l0,8.4l14.71,0l0,-80.58l-14.71,0.01z" fill="#000000" fill-rule="nonzero" id="path46"/>
    </g>
    <g id="g48" transform="translate(701.675 413.419)">
     <path d="m-98.25,303c-4.09,-6.14 -6.13,-14.16 -6.13,-24.06l0,-32.46l-14.71,0l0,79.13l14.71,0l0,-7.27c7.25,5.92 18.13,8.88 32.64,8.88l0,-13.72c-13.08,0 -21.91,-3.5 -26.51,-10.5" fill="#000000" fill-rule="nonzero" id="path50"/>
    </g>
    <g id="g52" transform="translate(564.328 727.359)">
     <path d="m-98.25,303l-123.26,-123.26l36.37,-36.38l90.37,90.36c0,0 15.85,14.73 12.84,40.01c0,0 -2.89,17.26 -16.32,29.27" fill="#000000" fill-rule="nonzero" id="path54"/>
    </g>
    <g id="g56" transform="translate(278.276 659.487)">
     <path d="m-98.25,303l150.31,150.31l-36.38,36.38l-116.31,-116.31c0,0 -15.85,-14.73 -12.84,-40.01c0,0 1.79,-18.36 15.22,-30.37" fill="#000000" fill-rule="nonzero" id="path58"/>
    </g>
    <g id="g60" transform="translate(527.915 763.798)">
     <path d="m-98.25,303l-143.56,-143.56c0,0 -14.26,-15.07 -39.35,-12.39c0,0 -18.75,1.76 -30.57,15.22l139.7,139.69c0,0 13.51,16.63 35.8,16.79c0.86,0.01 1.72,0 2.58,0.02c4.18,0.08 21.31,-0.97 35.4,-15.77" fill="#000000" fill-rule="nonzero" id="path62"/>
    </g>
    <g id="g64" transform="translate(414.152 577.095)">
     <path d="m-98.25,303l36.47,-36.47l11.02,11.03l-26.49,26.5c0,0 -4.32,4.64 -11.74,3.76c0,0 -5.74,-0.88 -9.26,-4.82" fill="#000000" fill-rule="nonzero" id="path66"/>
    </g>
    <g id="g68" transform="translate(418.809 872.777)">
     <path d="m-98.25,303l26.28,-26.3c0,0 4.56,-4.35 3.94,-11.43c0,0 -0.24,-5.23 -4.72,-9.47l-25.36,25.39c0,0 -5.05,4.41 -4.91,11.16c0,0 0.08,6.38 4.77,10.65" fill="#000000" fill-rule="nonzero" id="path70"/>
    </g>
    <g id="g72" transform="translate(434.547 524.783)">
     <path d="m-98.25,303l-26.3,26.28c0,0 -4.35,4.56 -11.43,3.94c0,0 -5.23,-0.24 -9.47,-4.72l25.39,-25.36c0,0 4.41,-5.05 11.16,-4.91c0,0 6.38,0.08 10.65,4.77" fill="#000000" fill-rule="nonzero" id="path74"/>
    </g>
   </g>
  </g>
 </g>
</svg>